{"glyphs":{"0":{"ha":1492,"x_min":0,"x_max":1356,"o":"m 271 339 q 339 271 271 271 l 1017 271 q 1085 339 1085 271 l 1085 678 q 1017 746 1085 746 l 339 746 q 271 678 271 746 l 271 339 m 1085 1017 q 1356 746 1356 1017 l 1356 271 q 1085 0 1356 0 l 271 0 q 0 271 0 0 l 0 746 q 271 1017 0 1017 l 1085 1017 z "},"1":{"ha":543,"x_min":0,"x_max":407,"o":"m 136 1017 q 407 747 407 1017 l 407 0 l 136 -1 l 136 678 q 68 746 136 745 l 0 746 l 0 1017 l 136 1017 z "},"2":{"ha":1492,"x_min":0,"x_max":1356,"o":"m 338 373 q 271 305 271 373 l 271 271 l 1356 271 l 1356 1 l 0 0 l 0 373 q 271 644 0 644 l 1017 644 q 1085 678 1085 644 l 1085 712 q 1017 746 1085 746 l 0 746 l 0 1017 l 1085 1017 q 1356 747 1356 1017 l 1356 644 q 1085 373 1356 373 l 338 373 z "},"3":{"ha":1492,"x_min":0,"x_max":1356,"o":"m 271 373 l 271 644 l 1017 644 q 1085 678 1085 644 l 1085 712 q 1017 746 1085 746 l 0 746 l 0 1017 l 1085 1017 q 1356 746 1356 1017 l 1356 644 q 1289 509 1356 564 q 1356 373 1356 452 l 1356 271 q 1085 0 1356 0 l 0 0 l 0 271 l 1017 271 q 1085 305 1085 271 l 1085 339 q 1017 373 1085 373 l 271 373 z "},"4":{"ha":1492,"x_min":0,"x_max":1356,"o":"m 271 237 q 0 509 0 237 l 0 1017 l 271 1017 l 271 576 q 339 509 271 509 l 1085 509 l 1085 1017 l 1356 1017 l 1356 0 l 1085 -1 l 1085 237 l 271 237 z "},"5":{"ha":1492,"x_min":0,"x_max":1356,"o":"m 1085 644 q 1356 373 1356 644 l 1356 271 q 1085 0 1356 0 l 0 0 l 0 271 l 1017 271 q 1085 305 1085 271 l 1085 339 q 1017 373 1085 373 l 0 374 l 0 1017 l 1356 1017 l 1356 745 l 271 746 l 271 645 l 1085 644 z "},"6":{"ha":1492,"x_min":0,"x_max":1356,"o":"m 271 305 q 339 271 271 271 l 1017 271 q 1085 305 1085 271 l 1085 339 q 1017 373 1085 373 l 339 373 q 271 339 271 373 l 271 305 m 271 644 l 1085 644 q 1356 373 1356 644 l 1356 271 q 1085 0 1356 0 l 271 0 q 0 271 0 0 l 0 746 q 271 1017 0 1017 l 1085 1017 q 1356 746 1356 1017 l 1356 712 l 1085 712 q 1017 746 1085 746 l 339 746 q 271 678 271 746 l 271 644 z "},"7":{"ha":1492,"x_min":0,"x_max":1356,"o":"m 882 746 l 0 746 l 0 1017 l 1153 1017 q 1356 882 1356 1017 q 1221 678 1356 814 l 610 0 l 237 0 l 882 746 z "},"8":{"ha":1492,"x_min":0,"x_max":1356,"o":"m 339 373 q 271 339 271 373 l 271 305 q 339 271 271 271 l 1017 271 q 1085 305 1085 271 l 1085 339 q 1017 373 1085 373 l 339 373 m 271 0 q 0 271 0 0 l 0 373 q 68 509 0 452 q 0 644 0 564 l 0 746 q 271 1017 0 1017 l 1085 1017 q 1356 746 1356 1017 l 1356 644 q 1289 509 1356 564 q 1356 373 1356 452 l 1356 271 q 1085 0 1356 0 l 271 0 m 339 746 q 271 712 271 746 l 271 678 q 339 644 271 644 l 1017 644 q 1085 678 1085 644 l 1085 712 q 1017 746 1085 746 l 339 746 z "},"9":{"ha":1492,"x_min":0,"x_max":1356,"o":"m 1085 712 q 1017 746 1085 746 l 339 746 q 271 712 271 746 l 271 678 q 339 644 271 644 l 1017 644 q 1085 678 1085 644 l 1085 712 m 1085 373 l 271 373 q 0 644 0 373 l 0 747 q 271 1017 0 1017 l 1085 1017 q 1356 746 1356 1017 l 1356 271 q 1085 0 1356 0 l 271 0 q 0 271 0 0 l 0 305 l 271 305 q 339 271 271 271 l 1017 271 q 1085 339 1085 271 l 1085 373 z "}," ":{"ha":1302,"x_min":0,"x_max":0,"o":""},"!":{"ha":407,"x_min":0,"x_max":271,"o":"m 0 0 l 0 271 l 271 271 l 271 0 l 0 0 m 271 1017 l 271 373 l 0 373 l 0 1017 l 271 1017 z "},"\"":{"ha":746,"x_min":0,"x_max":610,"o":"m 0 1017 l 271 1017 l 271 747 l 269 747 l 271 746 q 0 475 271 475 l 0 1017 m 339 1017 l 610 1017 l 610 747 l 608 747 l 610 746 q 339 475 610 475 l 339 1017 z "},"#":{"ha":1221,"x_min":0,"x_max":1085,"o":"m 644 170 l 441 170 l 441 1 l 170 0 l 170 170 l 0 170 l 0 441 l 170 441 l 170 576 l 0 576 l 0 848 l 170 848 l 170 1017 l 441 1017 l 441 848 l 644 848 l 644 1017 l 916 1017 l 916 848 l 1085 848 l 1085 576 l 916 576 l 916 441 l 1085 441 l 1085 170 l 916 170 l 916 0 l 644 0 l 644 170 m 441 576 l 441 441 l 644 441 l 644 576 l 441 576 z "},"$":{"ha":1492,"x_min":0,"x_max":1356,"o":"m 1085 644 q 1356 373 1356 644 l 1356 338 q 1085 68 1356 68 l 814 68 l 814 1 l 543 0 l 543 68 l 0 68 l 0 339 l 1017 339 q 1085 373 1085 339 l 271 374 q 0 644 0 374 l 0 679 q 271 950 0 950 l 543 950 l 543 1017 l 814 1017 l 814 950 l 1356 949 l 1356 678 l 339 678 q 271 645 271 678 l 339 644 l 1085 644 z "},"%":{"ha":1628,"x_min":0,"x_max":1492,"o":"m 1017 271 l 1085 271 q 1153 339 1153 271 q 1085 407 1153 407 l 1017 407 q 949 339 949 407 q 1017 271 949 271 m 407 610 l 475 610 q 543 678 543 610 q 475 746 543 746 l 407 746 q 339 678 339 746 q 407 610 339 610 m 814 718 l 1153 1017 l 1492 1017 l 1107 678 l 1153 678 q 1424 407 1424 678 l 1424 271 q 1153 0 1424 0 l 949 0 q 678 271 678 0 l 678 299 l 339 0 l 0 0 l 385 339 l 339 339 q 68 610 68 339 l 68 746 q 339 1017 68 1017 l 543 1017 q 814 746 814 1017 l 814 718 z "},"&":{"ha":1492,"x_min":0,"x_max":1356,"o":"m 1085 644 l 1085 373 l 271 373 q 339 339 271 339 l 1356 339 l 1356 68 l 814 68 l 814 1 l 543 0 l 543 68 l 271 68 q 0 338 0 68 l 0 373 q 68 509 0 452 q 0 644 0 564 l 0 678 q 271 949 0 949 l 543 949 l 543 1017 l 814 1017 l 814 949 l 1356 949 l 1356 678 l 339 678 q 271 644 271 678 l 1085 644 z "},"'":{"ha":407,"x_min":0,"x_max":271,"o":"m 0 1017 l 271 1017 l 271 747 l 269 747 l 271 746 q 0 475 271 475 l 0 1017 z "},"(":{"ha":543,"x_min":0,"x_max":407,"o":"m 271 203 q 339 136 271 136 l 407 136 l 407 -136 l 271 -136 q 0 135 0 -136 l 0 882 q 271 1153 0 1153 l 407 1153 l 407 882 l 339 882 q 271 814 271 882 l 271 203 z "},")":{"ha":543,"x_min":0,"x_max":407,"o":"m 136 814 q 68 882 136 882 l 0 882 l 0 1153 l 136 1153 q 407 882 407 1153 l 407 135 q 136 -136 407 -136 l 0 -136 l 0 136 l 68 136 q 136 203 136 136 l 136 814 z "},"*":{"ha":1085,"x_min":0,"x_max":949,"o":"m 258 1153 l 68 1424 l 339 1424 l 475 1230 l 610 1424 l 882 1424 l 692 1153 l 949 1153 l 949 882 l 692 882 l 882 610 l 610 610 l 475 804 l 339 610 l 68 610 l 258 882 l 0 882 l 0 1153 l 258 1153 z "},"+":{"ha":1221,"x_min":0,"x_max":1085,"o":"m 407 373 l 0 373 l 0 644 l 407 644 l 407 1017 l 678 1017 l 678 644 l 1085 644 l 1085 373 l 678 373 l 678 1 l 407 0 l 407 373 z "},",":{"ha":407,"x_min":0,"x_max":271,"o":"m 0 271 l 271 271 l 271 1 l 269 1 l 271 0 q 0 -271 271 -271 l 0 271 z "},"-":{"ha":1221,"x_min":0,"x_max":1085,"o":"m 0 644 l 1085 644 l 1085 373 l 0 373 l 0 644 z "},".":{"ha":407,"x_min":0,"x_max":271,"o":"m 271 271 l 271 1 l 0 0 l 0 271 l 271 271 z "},"/":{"ha":1628,"x_min":0,"x_max":1492,"o":"m 1153 1017 l 1492 1017 l 339 0 l 0 0 l 1153 1017 z "},":":{"ha":407,"x_min":0,"x_max":271,"o":"m 271 271 l 271 1 l 0 0 l 0 271 l 271 271 m 271 644 l 271 374 l 0 373 l 0 644 l 271 644 z "},";":{"ha":407,"x_min":0,"x_max":271,"o":"m 271 644 l 271 374 l 0 373 l 0 644 l 271 644 m 0 271 l 271 271 l 271 1 l 269 1 l 271 0 q 0 -271 271 -271 l 0 271 z "},"<":{"ha":1051,"x_min":0,"x_max":916,"o":"m 0 509 l 576 1017 l 916 1017 l 339 509 l 916 0 l 576 0 l 0 509 z "},"=":{"ha":1221,"x_min":0,"x_max":1085,"o":"m 0 441 l 1085 441 l 1085 170 l 0 170 l 0 441 m 0 848 l 1085 848 l 1085 576 l 0 576 l 0 848 z "},">":{"ha":1051,"x_min":0,"x_max":916,"o":"m 339 0 l 0 0 l 576 509 l 0 1017 l 339 1017 l 916 509 l 339 0 z "},"?":{"ha":1492,"x_min":0,"x_max":1356,"o":"m 271 373 q 543 644 271 644 l 1017 644 q 1085 678 1085 644 l 1085 712 q 1017 746 1085 746 l 0 746 l 0 1017 l 1085 1017 q 1356 747 1356 1017 l 1356 644 q 1085 373 1356 373 l 271 373 m 271 0 l 271 271 l 543 271 l 543 0 l 271 0 z "},"@":{"ha":1492,"x_min":0,"x_max":1356,"o":"m 373 746 l 339 746 q 271 678 271 746 l 271 339 q 339 271 271 271 l 1356 271 l 1356 0 l 271 0 q 0 271 0 0 l 0 746 q 271 1017 0 1017 l 1085 1017 q 1356 746 1356 1017 l 1356 339 l 644 339 q 373 610 373 339 l 373 746 m 1085 610 l 1085 678 q 1017 746 1085 746 l 644 746 l 644 678 q 712 610 644 610 l 1085 610 z "},"A":{"ha":1628,"x_min":0,"x_max":1492,"o":"m 454 203 l 339 0 l 0 0 l 441 780 q 746 1017 576 1017 q 1051 780 916 1017 l 1492 0 l 1153 0 l 1038 203 l 454 203 m 884 475 l 746 718 l 608 475 l 884 475 z "},"B":{"ha":1628,"x_min":0,"x_max":1492,"o":"m 0 1017 l 1221 1017 q 1492 746 1492 1017 l 1492 644 q 1424 509 1492 564 q 1492 373 1492 452 l 1492 271 q 1221 0 1492 0 l 0 0 l 0 1017 m 271 373 l 271 271 l 1153 271 q 1221 305 1221 271 l 1221 339 q 1153 373 1221 373 l 271 373 m 1153 644 q 1221 678 1221 644 l 1221 712 q 1153 746 1221 746 l 271 746 l 271 644 l 1153 644 z "},"C":{"ha":1492,"x_min":0,"x_max":1356,"o":"m 271 339 q 339 271 271 271 l 1356 271 l 1356 0 l 271 0 q 0 271 0 0 l 0 746 q 271 1017 0 1017 l 1356 1017 l 1356 746 l 339 746 q 271 678 271 746 l 271 339 z "},"D":{"ha":1628,"x_min":0,"x_max":1492,"o":"m 271 271 l 1153 271 q 1221 339 1221 271 l 1221 678 q 1153 746 1221 746 l 271 746 l 271 271 m 1221 1017 q 1492 746 1492 1017 l 1492 271 q 1221 0 1492 0 l 0 0 l 0 1017 l 1221 1017 z "},"E":{"ha":1492,"x_min":0,"x_max":1356,"o":"m 271 644 l 1356 644 l 1356 373 l 271 373 l 271 339 q 339 271 271 271 l 1356 271 l 1356 0 l 271 0 q 0 271 0 0 l 0 746 q 271 1017 0 1017 l 1356 1017 l 1356 746 l 339 746 q 271 678 271 746 l 271 644 z "},"F":{"ha":1492,"x_min":0,"x_max":1356,"o":"m 271 644 l 1356 644 l 1356 373 l 271 373 l 271 0 l 0 0 l 0 746 q 271 1017 0 1017 l 1356 1017 l 1356 746 l 339 746 q 271 678 271 746 l 271 644 z "},"G":{"ha":1628,"x_min":0,"x_max":1492,"o":"m 271 0 q 0 271 0 0 l 0 746 q 271 1017 0 1017 l 1492 1017 l 1492 746 l 339 746 q 271 678 271 746 l 271 339 q 339 271 271 271 l 1221 271 l 1221 373 l 746 373 l 746 644 l 1492 644 l 1492 0 l 271 0 z "},"H":{"ha":1628,"x_min":0,"x_max":1492,"o":"m 271 373 l 271 1 l 0 0 l 0 1017 l 271 1017 l 271 644 l 1221 644 l 1221 1017 l 1492 1017 l 1492 1 l 1221 0 l 1221 373 l 271 373 z "},"I":{"ha":407,"x_min":0,"x_max":271,"o":"m 271 1017 l 271 1 l 0 0 l 0 1017 l 271 1017 z "},"J":{"ha":1628,"x_min":0,"x_max":1492,"o":"m 271 339 q 339 271 271 271 l 1153 271 q 1221 339 1221 271 l 1221 1017 l 1492 1017 l 1492 271 q 1221 0 1492 0 l 271 0 q 0 271 0 0 l 0 407 l 271 407 l 271 339 z "},"K":{"ha":1492,"x_min":0,"x_max":1356,"o":"m 594 644 l 610 659 l 1017 1017 l 1356 1017 l 780 509 l 1356 0 l 1017 0 l 610 359 l 594 373 l 271 373 l 271 1 l 0 0 l 0 1017 l 271 1017 l 271 644 l 594 644 z "},"L":{"ha":1492,"x_min":0,"x_max":1356,"o":"m 271 0 q 0 271 0 0 l 0 1018 l 271 1017 l 271 339 q 339 271 271 271 l 1356 271 l 1356 0 l 271 0 z "},"M":{"ha":1763,"x_min":0,"x_max":1628,"o":"m 1424 1017 q 1628 814 1628 1017 l 1628 1 l 1356 0 l 1356 657 l 1119 237 q 814 0 983 0 q 509 237 644 0 l 271 657 l 271 1 l 0 0 l 0 814 q 203 1017 0 1017 q 475 882 407 1017 l 814 299 l 1153 882 q 1424 1017 1221 1017 z "},"N":{"ha":1628,"x_min":0,"x_max":1492,"o":"m 1221 239 l 1221 1017 l 1492 1017 l 1492 203 q 1289 0 1492 0 q 1085 68 1153 0 l 271 778 l 271 1 l 0 0 l 0 814 q 203 1017 0 1017 q 407 949 339 1017 l 1221 239 z "},"O":{"ha":1628,"x_min":0,"x_max":1492,"o":"m 271 339 q 339 271 271 271 l 1153 271 q 1221 339 1221 271 l 1221 678 q 1153 746 1221 746 l 339 746 q 271 678 271 746 l 271 339 m 1221 1017 q 1492 746 1492 1017 l 1492 271 q 1221 0 1492 0 l 271 0 q 0 271 0 0 l 0 746 q 271 1017 0 1017 l 1221 1017 z "},"P":{"ha":1628,"x_min":0,"x_max":1492,"o":"m 271 644 l 1153 644 q 1221 678 1221 644 l 1221 712 q 1153 746 1221 746 l 271 746 l 271 644 m 0 1017 l 1221 1017 q 1492 746 1492 1017 l 1492 644 q 1221 373 1492 373 l 271 373 l 271 0 l 0 0 l 0 1017 z "},"Q":{"ha":1628,"x_min":0,"x_max":1526,"o":"m 880 271 l 610 509 l 949 509 l 1202 286 q 1221 339 1221 303 l 1221 678 q 1153 746 1221 746 l 339 746 q 271 678 271 746 l 271 339 q 339 271 271 271 l 880 271 m 271 0 q 0 271 0 0 l 0 746 q 271 1017 0 1017 l 1221 1017 q 1492 746 1492 1017 l 1492 271 q 1436 80 1492 147 l 1526 0 l 271 0 z "},"R":{"ha":1628,"x_min":0,"x_max":1492,"o":"m 1153 644 q 1221 678 1221 644 l 1221 712 q 1153 746 1221 746 l 271 746 l 271 644 l 1153 644 m 271 0 l 0 0 l 0 1017 l 1221 1017 q 1492 746 1492 1017 l 1492 644 q 1424 509 1492 564 q 1492 373 1492 452 l 1492 0 l 1221 0 l 1221 339 q 1153 373 1221 373 l 271 373 l 271 0 z "},"S":{"ha":1628,"x_min":0,"x_max":1492,"o":"m 1221 644 q 1492 373 1492 644 l 1492 271 q 1221 0 1492 0 l 0 0 l 0 271 l 1153 271 q 1221 305 1221 271 l 1221 339 q 1153 373 1221 373 l 271 374 q 0 644 0 374 l 0 746 q 271 1017 0 1017 l 1492 1017 l 1492 745 l 339 746 q 271 712 271 746 l 271 678 q 339 645 271 645 l 1221 644 z "},"T":{"ha":1492,"x_min":0,"x_max":1356,"o":"m 543 746 l 0 746 l 0 1017 l 1356 1017 l 1356 746 l 814 746 l 814 1 l 543 0 l 543 746 z "},"U":{"ha":1628,"x_min":0,"x_max":1492,"o":"m 271 339 q 339 271 271 271 l 1153 271 q 1221 339 1221 271 l 1221 1017 l 1492 1017 l 1492 271 q 1221 0 1492 0 l 271 0 q 0 271 0 0 l 0 1017 l 271 1017 l 271 339 z "},"V":{"ha":1628,"x_min":0,"x_max":1492,"o":"m 746 0 q 441 237 576 0 l 0 1017 l 339 1017 l 746 299 l 1153 1017 l 1492 1017 l 1051 237 q 746 0 916 0 z "},"W":{"ha":1763,"x_min":0,"x_max":1628,"o":"m 949 203 l 814 610 l 678 203 q 475 0 610 0 q 271 203 339 0 l 0 1017 l 271 1017 l 475 407 l 610 814 q 814 1017 678 1017 q 1017 814 949 1017 l 1153 407 l 1356 1017 l 1628 1017 l 1356 203 q 1153 0 1289 0 q 949 203 1017 0 z "},"X":{"ha":1628,"x_min":0,"x_max":1492,"o":"m 576 509 l 0 1017 l 339 1017 l 746 659 l 1153 1017 l 1492 1017 l 916 509 l 1492 0 l 1153 0 l 746 359 l 339 0 l 0 0 l 576 509 z "},"Y":{"ha":1628,"x_min":0,"x_max":1492,"o":"m 610 479 l 576 509 l 0 1017 l 339 1017 l 746 659 l 1153 1017 l 1492 1017 l 916 509 l 882 479 l 882 1 l 610 0 l 610 479 z "},"Z":{"ha":1492,"x_min":0,"x_max":1356,"o":"m 848 746 l 0 746 l 0 1017 l 1153 1017 q 1356 848 1356 1017 q 1221 678 1356 746 l 509 271 l 1356 271 l 1356 0 l 203 0 q 0 203 0 0 q 135 339 0 271 l 848 746 z "},"[":{"ha":543,"x_min":0,"x_max":407,"o":"m 271 136 l 407 136 l 407 -136 l 0 -136 l 0 1153 l 407 1153 l 407 882 l 271 882 l 271 136 z "},"\\":{"ha":1628,"x_min":0,"x_max":1492,"o":"m 0 1017 l 339 1017 l 1492 0 l 1153 0 l 0 1017 z "},"]":{"ha":543,"x_min":0,"x_max":407,"o":"m 136 882 l 0 882 l 0 1153 l 407 1153 l 407 -136 l 0 -136 l 0 136 l 136 136 l 136 882 z "},"^":{"ha":949,"x_min":0,"x_max":814,"o":"m 407 1279 l 271 1085 l 0 1085 l 237 1424 l 576 1424 l 814 1085 l 543 1085 l 407 1279 z "},"_":{"ha":1628,"x_min":0,"x_max":1492,"o":"m 0 -339 l 0 -68 l 1492 -68 l 1492 -339 l 0 -339 z "},"`":{"ha":848,"x_min":0,"x_max":712,"o":"m 0 1424 l 305 1424 l 712 1085 l 407 1085 l 0 1424 z "},"a":{"ha":1302,"x_min":0,"x_max":1194,"o":"m 363 163 l 271 0 l 0 0 l 353 624 q 597 814 461 814 q 841 624 732 814 l 1194 0 l 922 0 l 830 163 l 363 163 m 707 380 l 597 574 l 487 380 l 707 380 z "},"b":{"ha":1302,"x_min":0,"x_max":1194,"o":"m 0 814 l 977 814 q 1194 597 1194 814 l 1194 515 q 1139 408 1194 452 q 1194 298 1194 362 l 1194 216 q 977 0 1194 0 l 0 0 l 0 814 m 217 298 l 217 217 l 922 217 q 977 244 977 217 l 977 271 q 922 298 977 298 l 217 298 m 922 515 q 977 543 977 515 l 977 570 q 922 597 977 597 l 217 597 l 217 515 l 922 515 z "},"c":{"ha":1194,"x_min":0,"x_max":1085,"o":"m 217 271 q 271 217 217 217 l 1085 217 l 1085 0 l 217 0 q 0 216 0 0 l 0 597 q 217 814 0 814 l 1085 814 l 1085 597 l 271 597 q 217 543 217 597 l 217 271 z "},"d":{"ha":1302,"x_min":0,"x_max":1194,"o":"m 217 217 l 922 217 q 977 271 977 217 l 977 543 q 922 597 977 597 l 217 597 l 217 217 m 977 814 q 1194 597 1194 814 l 1194 216 q 977 0 1194 0 l 0 0 l 0 814 l 977 814 z "},"e":{"ha":1194,"x_min":0,"x_max":1085,"o":"m 217 515 l 1085 515 l 1085 298 l 217 298 l 217 271 q 271 217 217 217 l 1085 217 l 1085 0 l 217 0 q 0 216 0 0 l 0 597 q 217 814 0 814 l 1085 814 l 1085 597 l 271 597 q 217 543 217 597 l 217 515 z "},"f":{"ha":1194,"x_min":0,"x_max":1085,"o":"m 217 515 l 1085 515 l 1085 298 l 217 298 l 217 0 l 0 0 l 0 597 q 217 814 0 814 l 1085 814 l 1085 597 l 271 597 q 217 543 217 597 l 217 515 z "},"g":{"ha":1302,"x_min":0,"x_max":1194,"o":"m 217 0 q 0 217 0 0 l 0 597 q 217 814 0 814 l 1194 814 l 1194 597 l 271 597 q 217 543 217 597 l 217 271 q 271 217 217 217 l 977 217 l 977 298 l 597 298 l 597 515 l 1194 515 l 1194 0 l 217 0 z "},"h":{"ha":1302,"x_min":0,"x_max":1194,"o":"m 217 298 l 217 1 l 0 0 l 0 814 l 217 814 l 217 515 l 977 515 l 977 814 l 1194 814 l 1194 1 l 977 0 l 977 298 l 217 298 z "},"i":{"ha":326,"x_min":0,"x_max":217,"o":"m 217 814 l 217 1 l 0 0 l 0 814 l 217 814 z "},"j":{"ha":1302,"x_min":0,"x_max":1194,"o":"m 217 271 q 271 217 217 217 l 922 217 q 977 271 977 217 l 977 814 l 1194 814 l 1194 216 q 977 0 1194 0 l 217 0 q 0 217 0 0 l 0 326 l 217 326 l 217 271 z "},"k":{"ha":1194,"x_min":0,"x_max":1085,"o":"m 475 515 l 488 527 l 814 814 l 1085 814 l 624 407 l 1085 0 l 814 0 l 488 287 l 475 298 l 217 298 l 217 1 l 0 0 l 0 814 l 217 814 l 217 515 l 475 515 z "},"l":{"ha":1194,"x_min":0,"x_max":1085,"o":"m 217 0 q 0 216 0 0 l 0 814 l 217 814 l 217 271 q 271 216 217 217 l 1085 217 l 1085 0 l 217 0 z "},"m":{"ha":1411,"x_min":0,"x_max":1302,"o":"m 1139 814 q 1302 652 1302 814 l 1302 1 l 1085 0 l 1085 526 l 895 190 q 651 0 787 0 q 407 190 515 0 l 217 526 l 217 1 l 0 0 l 0 651 q 163 814 0 814 q 380 706 326 814 l 651 239 l 922 706 q 1139 814 977 814 z "},"n":{"ha":1302,"x_min":0,"x_max":1194,"o":"m 977 191 l 977 814 l 1194 814 l 1194 163 q 1031 0 1194 0 q 868 54 922 0 l 217 623 l 217 1 l 0 0 l 0 651 q 163 814 0 814 q 326 760 271 814 l 977 191 z "},"o":{"ha":1302,"x_min":0,"x_max":1194,"o":"m 217 271 q 271 217 217 217 l 922 217 q 977 271 977 217 l 977 543 q 922 597 977 597 l 271 597 q 217 543 217 597 l 217 271 m 977 814 q 1194 597 1194 814 l 1194 216 q 977 0 1194 0 l 217 0 q 0 217 0 0 l 0 597 q 217 814 0 814 l 977 814 z "},"p":{"ha":1302,"x_min":0,"x_max":1194,"o":"m 217 515 l 922 515 q 977 543 977 515 l 977 570 q 922 597 977 597 l 217 597 l 217 515 m 0 814 l 977 814 q 1194 597 1194 814 l 1194 515 q 977 298 1194 298 l 217 298 l 217 0 l 0 0 l 0 814 z "},"q":{"ha":1302,"x_min":0,"x_max":1221,"o":"m 704 217 l 488 407 l 760 407 l 962 229 q 977 271 977 243 l 977 543 q 922 597 977 597 l 271 597 q 217 543 217 597 l 217 271 q 271 217 217 217 l 704 217 m 217 0 q 0 217 0 0 l 0 597 q 217 814 0 814 l 977 814 q 1194 597 1194 814 l 1194 216 q 1149 64 1194 118 l 1221 0 l 217 0 z "},"r":{"ha":1302,"x_min":0,"x_max":1194,"o":"m 922 515 q 977 543 977 515 l 977 570 q 922 597 977 597 l 217 597 l 217 515 l 922 515 m 217 0 l 0 0 l 0 814 l 977 814 q 1194 597 1194 814 l 1194 515 q 1139 407 1194 452 q 1194 298 1194 362 l 1194 0 l 977 0 l 977 271 q 922 298 977 298 l 217 298 l 217 0 z "},"s":{"ha":1302,"x_min":0,"x_max":1194,"o":"m 977 515 q 1194 298 1194 515 l 1194 216 q 977 0 1194 0 l 0 0 l 0 217 l 922 217 q 977 244 977 217 l 977 271 q 922 298 977 298 l 217 299 q 0 515 0 299 l 0 597 q 217 814 0 814 l 1194 813 l 1194 596 l 271 597 q 217 570 217 597 l 217 543 q 271 516 217 516 l 977 515 z "},"t":{"ha":1194,"x_min":0,"x_max":1085,"o":"m 434 597 l 0 597 l 0 814 l 1085 814 l 1085 597 l 651 597 l 651 1 l 434 0 l 434 597 z "},"u":{"ha":1302,"x_min":0,"x_max":1194,"o":"m 217 271 q 271 217 217 217 l 922 217 q 977 271 977 217 l 977 814 l 1194 814 l 1194 216 q 977 0 1194 0 l 217 0 q 0 217 0 0 l 0 814 l 217 814 l 217 271 z "},"v":{"ha":1302,"x_min":0,"x_max":1194,"o":"m 597 0 q 353 190 461 0 l 0 814 l 271 814 l 597 239 l 922 814 l 1194 814 l 841 190 q 597 0 732 0 z "},"w":{"ha":1411,"x_min":0,"x_max":1302,"o":"m 760 163 l 651 488 l 543 163 q 380 0 488 0 q 217 163 271 0 l 0 814 l 217 814 l 380 326 l 488 651 q 651 814 543 814 q 814 651 760 814 l 922 326 l 1085 814 l 1302 814 l 1085 163 q 922 0 1031 0 q 760 163 814 0 z "},"x":{"ha":1302,"x_min":0,"x_max":1194,"o":"m 461 407 l 0 814 l 271 814 l 597 527 l 922 814 l 1194 814 l 732 407 l 1194 0 l 922 0 l 597 287 l 271 0 l 0 0 l 461 407 z "},"y":{"ha":1302,"x_min":0,"x_max":1194,"o":"m 488 383 l 461 407 l 0 814 l 271 814 l 597 527 l 922 814 l 1194 814 l 732 407 l 705 383 l 705 1 l 488 0 l 488 383 z "},"z":{"ha":1194,"x_min":0,"x_max":1085,"o":"m 678 597 l 0 597 l 0 814 l 922 814 q 1085 678 1085 814 q 977 543 1085 597 l 407 217 l 1085 217 l 1085 0 l 163 0 q 0 163 0 0 q 108 271 0 217 l 678 597 z "},"{":{"ha":678,"x_min":0,"x_max":543,"o":"m 407 203 q 475 136 407 136 l 543 136 l 543 -136 l 407 -136 q 136 135 136 -136 l 136 339 q 68 373 136 373 l 0 373 l 0 644 l 68 644 q 136 678 136 644 l 136 882 q 407 1153 136 1153 l 543 1153 l 543 882 l 475 882 q 407 814 407 882 l 407 644 q 339 509 407 564 q 407 373 407 452 l 407 203 z "},"|":{"ha":407,"x_min":0,"x_max":271,"o":"m 271 -136 l 0 -136 l 0 1153 l 271 1154 l 271 -136 z "},"}":{"ha":678,"x_min":0,"x_max":543,"o":"m 136 373 q 203 509 136 452 q 136 644 136 564 l 136 814 q 68 882 136 882 l 0 882 l 0 1153 l 136 1153 q 407 882 407 1153 l 407 678 q 475 644 407 644 l 543 644 l 543 373 l 475 373 q 407 339 407 373 l 407 135 q 136 -136 407 -136 l 0 -136 l 0 136 l 68 136 q 136 203 136 136 l 136 373 z "},"~":{"ha":848,"x_min":0,"x_max":712,"o":"m 441 1324 l 441 1424 l 712 1424 l 712 1289 q 509 1085 712 1085 q 305 1153 373 1085 l 271 1187 l 271 1087 l 0 1086 l 0 1223 q 203 1426 0 1426 q 407 1358 339 1426 l 441 1324 z "},"¡":{"ha":407,"x_min":0,"x_max":271,"o":"m 271 1017 l 271 746 l 0 746 l 0 1017 l 271 1017 m 0 0 l 0 644 l 271 644 l 271 0 l 0 0 z "},"¢":{"ha":1194,"x_min":0,"x_max":1085,"o":"m 1085 271 l 1085 54 l 651 54 l 651 1 l 434 0 l 434 54 l 217 54 q 0 271 0 54 l 0 543 q 217 760 0 760 l 434 760 l 434 814 l 651 814 l 651 760 l 1085 760 l 1085 543 l 271 543 q 217 488 217 543 l 217 326 q 271 271 217 271 l 1085 271 z "},"£":{"ha":1492,"x_min":0,"x_max":1356,"o":"m 0 0 l 0 271 l 271 271 l 271 373 l 136 373 l 136 644 l 271 644 l 271 746 q 543 1017 271 1017 l 1356 1017 l 1356 746 l 610 746 q 543 678 543 746 l 543 644 l 1221 644 l 1221 373 l 543 373 l 543 271 l 1356 271 l 1356 0 l 0 0 z "},"¤":{"ha":1628,"x_min":0,"x_max":1492,"o":"m 407 475 q 475 407 407 407 l 1017 407 q 1085 475 1085 407 l 1085 543 q 1017 610 1085 610 l 475 610 q 407 543 407 610 l 407 475 m 493 136 l 339 0 l 0 0 l 217 191 q 136 407 136 258 l 136 610 q 217 826 136 759 l 0 1017 l 339 1017 l 493 882 l 999 882 l 1153 1017 l 1492 1017 l 1275 826 q 1356 610 1356 759 l 1356 406 q 1275 191 1356 258 l 1492 0 l 1153 0 l 999 136 l 493 136 z "},"¥":{"ha":1628,"x_min":0,"x_max":1492,"o":"m 882 68 l 882 1 l 610 0 l 610 68 l 203 68 l 203 339 l 610 339 l 610 407 l 203 407 l 203 678 l 385 678 l 0 1017 l 339 1017 l 724 678 l 768 678 l 1153 1017 l 1492 1017 l 1107 678 l 1289 678 l 1289 407 l 882 407 l 882 339 l 1289 339 l 1289 68 l 882 68 z "},"¦":{"ha":407,"x_min":0,"x_max":271,"o":"m 0 644 l 0 1153 l 271 1154 l 271 644 l 0 644 m 271 373 l 271 -136 l 0 -136 l 0 373 l 271 373 z "},"§":{"ha":1628,"x_min":0,"x_max":1492,"o":"m 407 475 q 475 407 407 407 l 1017 407 q 1085 475 1085 407 l 1085 543 q 1017 610 1085 610 l 475 610 q 407 543 407 610 l 407 475 m 136 397 q 0 644 0 453 l 0 1018 q 271 1289 0 1289 l 1492 1289 l 1492 1017 l 339 1018 q 271 984 271 1018 l 271 859 q 407 882 328 882 l 1085 882 q 1356 621 1351 882 q 1492 373 1492 565 l 1492 -1 q 1221 -271 1492 -271 l 0 -271 l 0 0 l 1153 0 q 1221 34 1221 0 l 1221 159 q 1085 136 1164 136 l 407 136 q 136 397 140 136 z "},"¨":{"ha":949,"x_min":0,"x_max":814,"o":"m 271 1356 l 271 1086 l 0 1086 l 0 1356 l 271 1356 m 814 1356 l 814 1085 l 543 1085 l 543 1356 l 814 1356 z "},"©":{"ha":1221,"x_min":0,"x_max":1085,"o":"m 339 678 q 373 644 339 644 l 882 644 l 882 509 l 339 509 q 203 644 203 509 l 203 882 q 339 1017 203 1017 l 882 1017 l 882 882 l 373 882 q 339 848 339 882 l 339 678 m 136 509 q 203 441 136 441 l 882 441 q 949 509 949 441 l 949 1017 q 882 1085 949 1085 l 203 1085 q 136 1017 136 1085 l 136 509 m 882 1221 q 1085 1017 1085 1221 l 1085 509 q 882 305 1085 305 l 203 305 q 0 509 0 305 l 0 1017 q 203 1221 0 1221 l 882 1221 z "},"ª":{"ha":1119,"x_min":0,"x_max":1017,"o":"m 136 0 q 0 136 0 0 l 0 882 q 136 1017 0 1017 l 882 1017 q 1017 882 1017 1017 l 1017 136 q 882 0 1017 0 l 136 0 m 882 17 q 1000 136 1000 17 l 1000 882 q 882 1000 1000 1000 l 136 1000 q 17 882 18 1000 l 17 136 q 136 17 18 17 l 882 17 z "},"«":{"ha":1492,"x_min":0,"x_max":1356,"o":"m 0 509 l 576 1017 l 916 1017 l 339 509 l 916 0 l 576 0 l 0 509 m 441 509 l 1017 1017 l 1356 1017 l 780 509 l 1356 0 l 1017 0 l 441 509 z "},"¬":{"ha":1119,"x_min":0,"x_max":1017,"o":"m 136 0 q 0 136 0 0 l 0 882 q 136 1017 0 1017 l 882 1017 q 1017 882 1017 1017 l 1017 136 q 882 0 1017 0 l 136 0 m 882 17 q 1000 136 1000 17 l 1000 882 q 882 1000 1000 1000 l 136 1000 q 17 882 18 1000 l 17 136 q 136 17 18 17 l 882 17 z "},"®":{"ha":1221,"x_min":0,"x_max":1085,"o":"m 746 831 q 780 848 780 831 l 780 865 q 746 882 780 882 l 305 882 l 305 831 l 746 831 m 305 509 l 170 509 l 170 1017 l 780 1017 q 916 882 916 1017 l 916 831 q 882 763 916 791 q 916 695 916 735 l 916 509 l 780 509 l 780 678 q 746 695 780 695 l 305 695 l 305 509 m 136 509 q 203 441 136 441 l 882 441 q 949 509 949 441 l 949 1017 q 882 1085 949 1085 l 203 1085 q 136 1017 136 1085 l 136 509 m 882 1221 q 1085 1017 1085 1221 l 1085 509 q 882 305 1085 305 l 203 305 q 0 509 0 305 l 0 1017 q 203 1221 0 1221 l 882 1221 z "},"¯":{"ha":1119,"x_min":0,"x_max":1017,"o":"m 136 0 q 0 136 0 0 l 0 882 q 136 1017 0 1017 l 882 1017 q 1017 882 1017 1017 l 1017 136 q 882 0 1017 0 l 136 0 m 882 17 q 1000 136 1000 17 l 1000 882 q 882 1000 1000 1000 l 136 1000 q 17 882 18 1000 l 17 136 q 136 17 18 17 l 882 17 z "},"°":{"ha":457,"x_min":41,"x_max":418,"o":"m 230 930 q 130 889 172 930 q 88 789 88 848 q 130 689 88 730 q 230 648 171 648 q 330 689 289 648 q 370 789 370 730 q 329 889 370 848 q 230 930 288 930 m 230 978 q 363 923 308 978 q 418 789 418 867 q 362 656 418 712 q 229 601 307 601 q 95 656 149 601 q 41 789 41 711 q 96 923 41 868 q 230 978 151 978 z "},"±":{"ha":1119,"x_min":0,"x_max":1017,"o":"m 136 0 q 0 136 0 0 l 0 882 q 136 1017 0 1017 l 882 1017 q 1017 882 1017 1017 l 1017 136 q 882 0 1017 0 l 136 0 m 882 17 q 1000 136 1000 17 l 1000 882 q 882 1000 1000 1000 l 136 1000 q 17 882 18 1000 l 17 136 q 136 17 18 17 l 882 17 z "},"²":{"ha":1119,"x_min":0,"x_max":1017,"o":"m 136 0 q 0 136 0 0 l 0 882 q 136 1017 0 1017 l 882 1017 q 1017 882 1017 1017 l 1017 136 q 882 0 1017 0 l 136 0 m 882 17 q 1000 136 1000 17 l 1000 882 q 882 1000 1000 1000 l 136 1000 q 17 882 18 1000 l 17 136 q 136 17 18 17 l 882 17 z "},"³":{"ha":1119,"x_min":0,"x_max":1017,"o":"m 136 0 q 0 136 0 0 l 0 882 q 136 1017 0 1017 l 882 1017 q 1017 882 1017 1017 l 1017 136 q 882 0 1017 0 l 136 0 m 882 17 q 1000 136 1000 17 l 1000 882 q 882 1000 1000 1000 l 136 1000 q 17 882 18 1000 l 17 136 q 136 17 18 17 l 882 17 z "},"´":{"ha":848,"x_min":0,"x_max":712,"o":"m 305 1085 l 0 1085 l 407 1424 l 712 1424 l 305 1085 z "},"µ":{"ha":1302,"x_min":0,"x_max":1194,"o":"m 0 814 l 217 814 l 217 271 q 271 217 217 217 l 922 217 q 977 271 977 217 l 977 814 l 1194 814 l 1194 216 q 977 0 1194 0 l 217 0 l 217 -217 l 0 -217 l 0 814 z "},"¶":{"ha":694,"x_min":63,"x_max":630,"o":"m 630 973 l 630 926 l 544 926 l 544 0 l 488 0 l 488 926 l 376 926 l 376 0 l 319 0 l 319 500 q 132 570 201 506 q 63 736 63 634 q 136 908 63 843 q 330 973 209 973 l 630 973 z "},"·":{"ha":407,"x_min":0,"x_max":271,"o":"m 271 644 l 271 374 l 0 373 l 0 644 l 271 644 z "},"¸":{"ha":610,"x_min":0,"x_max":475,"o":"m 0 -68 l 136 -68 q 203 0 203 -68 l 475 0 l 475 -68 q 203 -339 475 -339 l 0 -339 l 0 -68 z "},"¹":{"ha":1119,"x_min":0,"x_max":1017,"o":"m 136 0 q 0 136 0 0 l 0 882 q 136 1017 0 1017 l 882 1017 q 1017 882 1017 1017 l 1017 136 q 882 0 1017 0 l 136 0 m 882 17 q 1000 136 1000 17 l 1000 882 q 882 1000 1000 1000 l 136 1000 q 17 882 18 1000 l 17 136 q 136 17 18 17 l 882 17 z "},"º":{"ha":1119,"x_min":0,"x_max":1017,"o":"m 136 0 q 0 136 0 0 l 0 882 q 136 1017 0 1017 l 882 1017 q 1017 882 1017 1017 l 1017 136 q 882 0 1017 0 l 136 0 m 882 17 q 1000 136 1000 17 l 1000 882 q 882 1000 1000 1000 l 136 1000 q 17 882 18 1000 l 17 136 q 136 17 18 17 l 882 17 z "},"»":{"ha":1492,"x_min":0,"x_max":1356,"o":"m 780 0 l 441 0 l 1017 509 l 441 1017 l 780 1017 l 1356 509 l 780 0 m 339 0 l 0 0 l 576 509 l 0 1017 l 339 1017 l 916 509 l 339 0 z "},"¼":{"ha":1119,"x_min":0,"x_max":1017,"o":"m 136 0 q 0 136 0 0 l 0 882 q 136 1017 0 1017 l 882 1017 q 1017 882 1017 1017 l 1017 136 q 882 0 1017 0 l 136 0 m 882 17 q 1000 136 1000 17 l 1000 882 q 882 1000 1000 1000 l 136 1000 q 17 882 18 1000 l 17 136 q 136 17 18 17 l 882 17 z "},"½":{"ha":1119,"x_min":0,"x_max":1017,"o":"m 136 0 q 0 136 0 0 l 0 882 q 136 1017 0 1017 l 882 1017 q 1017 882 1017 1017 l 1017 136 q 882 0 1017 0 l 136 0 m 882 17 q 1000 136 1000 17 l 1000 882 q 882 1000 1000 1000 l 136 1000 q 17 882 18 1000 l 17 136 q 136 17 18 17 l 882 17 z "},"¾":{"ha":1119,"x_min":0,"x_max":1017,"o":"m 136 0 q 0 136 0 0 l 0 882 q 136 1017 0 1017 l 882 1017 q 1017 882 1017 1017 l 1017 136 q 882 0 1017 0 l 136 0 m 882 17 q 1000 136 1000 17 l 1000 882 q 882 1000 1000 1000 l 136 1000 q 17 882 18 1000 l 17 136 q 136 17 18 17 l 882 17 z "},"¿":{"ha":1492,"x_min":0,"x_max":1356,"o":"m 1085 644 q 814 373 1085 374 l 339 373 q 271 339 271 373 l 271 305 q 339 271 271 271 l 1356 271 l 1356 0 l 271 0 q 0 271 0 0 l 0 373 q 271 644 0 644 l 1085 644 m 1085 1017 l 1085 746 l 814 746 l 814 1017 l 1085 1017 z "},"À":{"ha":1628,"x_min":0,"x_max":1492,"o":"m 454 203 l 339 0 l 0 0 l 441 780 q 746 1017 576 1017 q 1051 780 916 1017 l 1492 0 l 1153 0 l 1038 203 l 454 203 m 884 475 l 746 718 l 608 475 l 884 475 m 390 1424 l 695 1424 l 1102 1085 l 797 1085 l 390 1424 z "},"Á":{"ha":1628,"x_min":0,"x_max":1492,"o":"m 454 203 l 339 0 l 0 0 l 441 780 q 746 1017 576 1017 q 1051 780 916 1017 l 1492 0 l 1153 0 l 1038 203 l 454 203 m 884 475 l 746 718 l 608 475 l 884 475 m 695 1085 l 390 1085 l 797 1424 l 1102 1424 l 695 1085 z "},"Â":{"ha":1628,"x_min":0,"x_max":1492,"o":"m 454 203 l 339 0 l 0 0 l 441 780 q 746 1017 576 1017 q 1051 780 916 1017 l 1492 0 l 1153 0 l 1038 203 l 454 203 m 884 475 l 746 718 l 608 475 l 884 475 m 746 1279 l 610 1085 l 339 1085 l 576 1424 l 916 1424 l 1153 1085 l 882 1085 l 746 1279 z "},"Ã":{"ha":1628,"x_min":0,"x_max":1492,"o":"m 454 203 l 339 0 l 0 0 l 441 780 q 746 1017 576 1017 q 1051 780 916 1017 l 1492 0 l 1153 0 l 1038 203 l 454 203 m 884 475 l 746 718 l 608 475 l 884 475 m 831 1324 l 831 1424 l 1102 1424 l 1102 1289 q 899 1085 1102 1085 q 695 1153 763 1085 l 661 1187 l 661 1087 l 390 1086 l 390 1223 q 593 1426 390 1426 q 797 1358 729 1426 l 831 1324 z "},"Ä":{"ha":1628,"x_min":0,"x_max":1492,"o":"m 454 203 l 339 0 l 0 0 l 441 780 q 746 1017 576 1017 q 1051 780 916 1017 l 1492 0 l 1153 0 l 1038 203 l 454 203 m 884 475 l 746 718 l 608 475 l 884 475 m 610 1356 l 610 1086 l 339 1086 l 339 1356 l 610 1356 m 1153 1356 l 1153 1085 l 882 1085 l 882 1356 l 1153 1356 z "},"Å":{"ha":1628,"x_min":0,"x_max":1492,"o":"m 454 203 l 339 0 l 0 0 l 441 780 q 746 1017 576 1017 q 1051 780 916 1017 l 1492 0 l 1153 0 l 1038 203 l 454 203 m 884 475 l 746 718 l 608 475 l 884 475 m 882 1356 l 882 1086 l 610 1086 l 610 1356 l 882 1356 z "},"Æ":{"ha":2102,"x_min":0,"x_max":1967,"o":"m 884 475 l 746 718 l 608 475 l 884 475 m 886 203 l 454 203 l 339 0 l 0 0 l 441 780 q 746 1017 576 1017 q 935 934 846 1017 q 1153 1017 1002 1017 l 1967 1017 l 1967 746 l 1221 746 q 1153 678 1153 746 l 1153 644 l 1967 644 l 1967 373 l 1153 373 l 1153 339 q 1221 271 1153 271 l 1967 271 l 1967 0 l 1153 0 q 886 203 918 0 z "},"Ç":{"ha":1492,"x_min":0,"x_max":1356,"o":"m 610 0 l 271 0 q 0 271 0 0 l 0 746 q 271 1017 0 1017 l 1356 1017 l 1356 746 l 339 746 q 271 678 271 746 l 271 339 q 339 271 271 271 l 1356 271 l 1356 0 l 882 0 l 882 -68 q 610 -339 882 -339 l 407 -339 l 407 -68 l 543 -68 q 610 0 610 -68 z "},"È":{"ha":1492,"x_min":0,"x_max":1356,"o":"m 271 644 l 1356 644 l 1356 373 l 271 373 l 271 339 q 339 271 271 271 l 1356 271 l 1356 0 l 271 0 q 0 271 0 0 l 0 746 q 271 1017 0 1017 l 1356 1017 l 1356 746 l 339 746 q 271 678 271 746 l 271 644 m 339 1424 l 644 1424 l 1051 1085 l 746 1085 l 339 1424 z "},"É":{"ha":1492,"x_min":0,"x_max":1356,"o":"m 271 644 l 1356 644 l 1356 373 l 271 373 l 271 339 q 339 271 271 271 l 1356 271 l 1356 0 l 271 0 q 0 271 0 0 l 0 746 q 271 1017 0 1017 l 1356 1017 l 1356 746 l 339 746 q 271 678 271 746 l 271 644 m 644 1085 l 339 1085 l 746 1424 l 1051 1424 l 644 1085 z "},"Ê":{"ha":1492,"x_min":0,"x_max":1356,"o":"m 271 644 l 1356 644 l 1356 373 l 271 373 l 271 339 q 339 271 271 271 l 1356 271 l 1356 0 l 271 0 q 0 271 0 0 l 0 746 q 271 1017 0 1017 l 1356 1017 l 1356 746 l 339 746 q 271 678 271 746 l 271 644 m 678 1279 l 543 1085 l 271 1085 l 509 1424 l 848 1424 l 1085 1085 l 814 1085 l 678 1279 z "},"Ë":{"ha":1492,"x_min":0,"x_max":1356,"o":"m 271 644 l 1356 644 l 1356 373 l 271 373 l 271 339 q 339 271 271 271 l 1356 271 l 1356 0 l 271 0 q 0 271 0 0 l 0 746 q 271 1017 0 1017 l 1356 1017 l 1356 746 l 339 746 q 271 678 271 746 l 271 644 m 543 1356 l 543 1086 l 271 1086 l 271 1356 l 543 1356 m 1085 1356 l 1085 1085 l 814 1085 l 814 1356 l 1085 1356 z "},"Ì":{"ha":407,"x_min":-220,"x_max":492,"o":"m 271 1017 l 271 1 l 0 0 l 0 1017 l 271 1017 m -220 1424 l 85 1424 l 492 1085 l 186 1085 l -220 1424 z "},"Í":{"ha":407,"x_min":-220,"x_max":492,"o":"m 271 1017 l 271 1 l 0 0 l 0 1017 l 271 1017 m 85 1085 l -220 1085 l 186 1424 l 492 1424 l 85 1085 z "},"Î":{"ha":407,"x_min":-271,"x_max":543,"o":"m 271 1017 l 271 1 l 0 0 l 0 1017 l 271 1017 m 136 1279 l 0 1085 l -271 1085 l -34 1424 l 305 1424 l 543 1085 l 271 1085 l 136 1279 z "},"Ï":{"ha":407,"x_min":-271,"x_max":543,"o":"m 271 1017 l 271 1 l 0 0 l 0 1017 l 271 1017 m 0 1356 l 0 1086 l -271 1086 l -271 1356 l 0 1356 m 543 1356 l 543 1085 l 271 1085 l 271 1356 l 543 1356 z "},"Ð":{"ha":1628,"x_min":0,"x_max":1492,"o":"m 136 644 l 136 1017 l 1221 1017 q 1492 746 1492 1017 l 1492 271 q 1221 0 1492 0 l 136 0 l 136 373 l 0 373 l 0 644 l 136 644 m 407 644 l 949 644 l 949 373 l 407 373 l 407 271 l 1153 271 q 1221 339 1221 271 l 1221 678 q 1153 746 1221 746 l 407 746 l 407 644 z "},"Ñ":{"ha":1628,"x_min":0,"x_max":1492,"o":"m 1221 239 l 1221 1017 l 1492 1017 l 1492 203 q 1289 0 1492 0 q 1085 68 1153 0 l 271 778 l 271 1 l 0 0 l 0 814 q 203 1017 0 1017 q 407 949 339 1017 l 1221 239 m 831 1324 l 831 1424 l 1102 1424 l 1102 1289 q 899 1085 1102 1085 q 695 1153 763 1085 l 661 1187 l 661 1087 l 390 1086 l 390 1223 q 593 1426 390 1426 q 797 1358 729 1426 l 831 1324 z "},"Ò":{"ha":1628,"x_min":0,"x_max":1492,"o":"m 271 339 q 339 271 271 271 l 1153 271 q 1221 339 1221 271 l 1221 678 q 1153 746 1221 746 l 339 746 q 271 678 271 746 l 271 339 m 1221 1017 q 1492 746 1492 1017 l 1492 271 q 1221 0 1492 0 l 271 0 q 0 271 0 0 l 0 746 q 271 1017 0 1017 l 1221 1017 m 390 1424 l 695 1424 l 1102 1085 l 797 1085 l 390 1424 z "},"Ó":{"ha":1628,"x_min":0,"x_max":1492,"o":"m 271 339 q 339 271 271 271 l 1153 271 q 1221 339 1221 271 l 1221 678 q 1153 746 1221 746 l 339 746 q 271 678 271 746 l 271 339 m 1221 1017 q 1492 746 1492 1017 l 1492 271 q 1221 0 1492 0 l 271 0 q 0 271 0 0 l 0 746 q 271 1017 0 1017 l 1221 1017 m 695 1085 l 390 1085 l 797 1424 l 1102 1424 l 695 1085 z "},"Ô":{"ha":1628,"x_min":0,"x_max":1492,"o":"m 271 339 q 339 271 271 271 l 1153 271 q 1221 339 1221 271 l 1221 678 q 1153 746 1221 746 l 339 746 q 271 678 271 746 l 271 339 m 1221 1017 q 1492 746 1492 1017 l 1492 271 q 1221 0 1492 0 l 271 0 q 0 271 0 0 l 0 746 q 271 1017 0 1017 l 1221 1017 m 746 1279 l 610 1085 l 339 1085 l 576 1424 l 916 1424 l 1153 1085 l 882 1085 l 746 1279 z "},"Õ":{"ha":1628,"x_min":0,"x_max":1492,"o":"m 271 339 q 339 271 271 271 l 1153 271 q 1221 339 1221 271 l 1221 678 q 1153 746 1221 746 l 339 746 q 271 678 271 746 l 271 339 m 1221 1017 q 1492 746 1492 1017 l 1492 271 q 1221 0 1492 0 l 271 0 q 0 271 0 0 l 0 746 q 271 1017 0 1017 l 1221 1017 m 831 1324 l 831 1424 l 1102 1424 l 1102 1289 q 899 1085 1102 1085 q 695 1153 763 1085 l 661 1187 l 661 1087 l 390 1086 l 390 1223 q 593 1426 390 1426 q 797 1358 729 1426 l 831 1324 z "},"Ö":{"ha":1628,"x_min":0,"x_max":1492,"o":"m 271 339 q 339 271 271 271 l 1153 271 q 1221 339 1221 271 l 1221 678 q 1153 746 1221 746 l 339 746 q 271 678 271 746 l 271 339 m 1221 1017 q 1492 746 1492 1017 l 1492 271 q 1221 0 1492 0 l 271 0 q 0 271 0 0 l 0 746 q 271 1017 0 1017 l 1221 1017 m 610 1356 l 610 1086 l 339 1086 l 339 1356 l 610 1356 m 1153 1356 l 1153 1085 l 882 1085 l 882 1356 l 1153 1356 z "},"×":{"ha":1628,"x_min":0,"x_max":1492,"o":"m 576 509 l 0 1017 l 339 1017 l 746 659 l 1153 1017 l 1492 1017 l 916 509 l 1492 0 l 1153 0 l 746 359 l 339 0 l 0 0 l 576 509 z "},"Ø":{"ha":1628,"x_min":0,"x_max":1492,"o":"m 311 275 l 846 746 l 339 746 q 271 678 271 746 l 271 339 q 311 275 271 287 m 1181 743 l 646 271 l 1153 271 q 1221 339 1221 271 l 1221 678 q 1181 743 1221 730 m 1492 1017 l 1420 954 q 1492 746 1492 886 l 1492 271 q 1221 0 1492 0 l 0 0 l 72 64 q 0 271 0 132 l 0 746 q 271 1017 0 1017 l 1492 1017 z "},"Ù":{"ha":1628,"x_min":0,"x_max":1492,"o":"m 271 339 q 339 271 271 271 l 1153 271 q 1221 339 1221 271 l 1221 1017 l 1492 1017 l 1492 271 q 1221 0 1492 0 l 271 0 q 0 271 0 0 l 0 1017 l 271 1017 l 271 339 m 390 1424 l 695 1424 l 1102 1085 l 797 1085 l 390 1424 z "},"Ú":{"ha":1628,"x_min":0,"x_max":1492,"o":"m 271 339 q 339 271 271 271 l 1153 271 q 1221 339 1221 271 l 1221 1017 l 1492 1017 l 1492 271 q 1221 0 1492 0 l 271 0 q 0 271 0 0 l 0 1017 l 271 1017 l 271 339 m 695 1085 l 390 1085 l 797 1424 l 1102 1424 l 695 1085 z "},"Û":{"ha":1628,"x_min":0,"x_max":1492,"o":"m 271 339 q 339 271 271 271 l 1153 271 q 1221 339 1221 271 l 1221 1017 l 1492 1017 l 1492 271 q 1221 0 1492 0 l 271 0 q 0 271 0 0 l 0 1017 l 271 1017 l 271 339 m 746 1279 l 610 1085 l 339 1085 l 576 1424 l 916 1424 l 1153 1085 l 882 1085 l 746 1279 z "},"Ü":{"ha":1628,"x_min":0,"x_max":1492,"o":"m 271 339 q 339 271 271 271 l 1153 271 q 1221 339 1221 271 l 1221 1017 l 1492 1017 l 1492 271 q 1221 0 1492 0 l 271 0 q 0 271 0 0 l 0 1017 l 271 1017 l 271 339 m 610 1356 l 610 1086 l 339 1086 l 339 1356 l 610 1356 m 1153 1356 l 1153 1085 l 882 1085 l 882 1356 l 1153 1356 z "},"Ý":{"ha":1628,"x_min":0,"x_max":1492,"o":"m 610 479 l 576 509 l 0 1017 l 339 1017 l 746 659 l 1153 1017 l 1492 1017 l 916 509 l 882 479 l 882 1 l 610 0 l 610 479 m 695 1085 l 390 1085 l 797 1424 l 1102 1424 l 695 1085 z "},"Þ":{"ha":1628,"x_min":0,"x_max":1492,"o":"m 271 475 l 1153 475 q 1221 509 1221 475 l 1221 543 q 1153 576 1221 576 l 271 576 l 271 475 m 271 848 l 1221 848 q 1492 576 1492 848 l 1492 474 q 1221 203 1492 203 l 271 203 l 271 0 l 0 0 l 0 1017 l 271 1017 l 271 848 z "},"ß":{"ha":1492,"x_min":0,"x_max":1356,"o":"m 271 0 l 0 0 l 0 746 q 271 1017 0 1017 l 1085 1017 q 1356 746 1356 1017 l 1356 644 q 1289 509 1356 564 q 1356 373 1356 452 l 1356 271 q 1085 0 1356 0 l 543 0 l 543 271 l 1017 271 q 1085 305 1085 271 l 1085 339 q 1017 373 1085 373 l 543 373 l 543 644 l 1017 644 q 1085 678 1085 644 l 1085 712 q 1017 746 1085 746 l 339 746 q 271 678 271 746 l 271 0 z "},"à":{"ha":1302,"x_min":0,"x_max":1194,"o":"m 363 163 l 271 0 l 0 0 l 353 624 q 597 814 461 814 q 841 624 732 814 l 1194 0 l 922 0 l 830 163 l 363 163 m 707 380 l 597 574 l 487 380 l 707 380 m 312 1139 l 556 1139 l 882 868 l 637 868 l 312 1139 z "},"á":{"ha":1302,"x_min":0,"x_max":1194,"o":"m 363 163 l 271 0 l 0 0 l 353 624 q 597 814 461 814 q 841 624 732 814 l 1194 0 l 922 0 l 830 163 l 363 163 m 707 380 l 597 574 l 487 380 l 707 380 m 556 868 l 312 868 l 637 1139 l 882 1139 l 556 868 z "},"â":{"ha":1302,"x_min":0,"x_max":1194,"o":"m 363 163 l 271 0 l 0 0 l 353 624 q 597 814 461 814 q 841 624 732 814 l 1194 0 l 922 0 l 830 163 l 363 163 m 707 380 l 597 574 l 487 380 l 707 380 m 597 1023 l 488 868 l 271 868 l 461 1139 l 732 1139 l 922 868 l 705 868 l 597 1023 z "},"ã":{"ha":1302,"x_min":0,"x_max":1194,"o":"m 363 163 l 271 0 l 0 0 l 353 624 q 597 814 461 814 q 841 624 732 814 l 1194 0 l 922 0 l 830 163 l 363 163 m 707 380 l 597 574 l 487 380 l 707 380 m 665 1059 l 665 1139 l 882 1139 l 882 1031 q 719 868 882 868 q 556 922 610 868 l 529 949 l 529 869 l 312 869 l 312 978 q 475 1141 312 1141 q 637 1086 583 1141 l 665 1059 z "},"ä":{"ha":1302,"x_min":0,"x_max":1194,"o":"m 363 163 l 271 0 l 0 0 l 353 624 q 597 814 461 814 q 841 624 732 814 l 1194 0 l 922 0 l 830 163 l 363 163 m 707 380 l 597 574 l 487 380 l 707 380 m 488 1085 l 488 869 l 271 869 l 271 1085 l 488 1085 m 922 1085 l 922 868 l 705 868 l 705 1085 l 922 1085 z "},"å":{"ha":1302,"x_min":0,"x_max":1194,"o":"m 363 163 l 271 0 l 0 0 l 353 624 q 597 814 461 814 q 841 624 732 814 l 1194 0 l 922 0 l 830 163 l 363 163 m 707 380 l 597 574 l 487 380 l 707 380 m 705 1085 l 705 869 l 488 869 l 488 1085 l 705 1085 z "},"æ":{"ha":1682,"x_min":0,"x_max":1573,"o":"m 707 380 l 597 574 l 487 380 l 707 380 m 709 163 l 363 163 l 271 0 l 0 0 l 353 624 q 597 814 461 814 q 748 747 677 814 q 922 814 802 814 l 1573 814 l 1573 597 l 977 597 q 922 543 922 597 l 922 515 l 1573 515 l 1573 298 l 922 298 l 922 271 q 977 217 922 217 l 1573 217 l 1573 0 l 922 0 q 709 163 734 0 z "},"ç":{"ha":1194,"x_min":0,"x_max":1085,"o":"m 488 0 l 217 0 q 0 216 0 0 l 0 597 q 217 814 0 814 l 1085 814 l 1085 597 l 271 597 q 217 543 217 597 l 217 271 q 271 217 217 217 l 1085 217 l 1085 0 l 705 0 l 705 -55 q 488 -271 705 -271 l 326 -271 l 326 -54 l 434 -54 q 488 0 488 -54 z "},"è":{"ha":1194,"x_min":0,"x_max":1085,"o":"m 217 515 l 1085 515 l 1085 298 l 217 298 l 217 271 q 271 217 217 217 l 1085 217 l 1085 0 l 217 0 q 0 216 0 0 l 0 597 q 217 814 0 814 l 1085 814 l 1085 597 l 271 597 q 217 543 217 597 l 217 515 m 271 1139 l 515 1139 l 841 868 l 597 868 l 271 1139 z "},"é":{"ha":1194,"x_min":0,"x_max":1085,"o":"m 217 515 l 1085 515 l 1085 298 l 217 298 l 217 271 q 271 217 217 217 l 1085 217 l 1085 0 l 217 0 q 0 216 0 0 l 0 597 q 217 814 0 814 l 1085 814 l 1085 597 l 271 597 q 217 543 217 597 l 217 515 m 515 868 l 271 868 l 597 1139 l 841 1139 l 515 868 z "},"ê":{"ha":1194,"x_min":0,"x_max":1085,"o":"m 217 515 l 1085 515 l 1085 298 l 217 298 l 217 271 q 271 217 217 217 l 1085 217 l 1085 0 l 217 0 q 0 216 0 0 l 0 597 q 217 814 0 814 l 1085 814 l 1085 597 l 271 597 q 217 543 217 597 l 217 515 m 543 1023 l 434 868 l 217 868 l 407 1139 l 678 1139 l 868 868 l 651 868 l 543 1023 z "},"ë":{"ha":1194,"x_min":0,"x_max":1085,"o":"m 217 515 l 1085 515 l 1085 298 l 217 298 l 217 271 q 271 217 217 217 l 1085 217 l 1085 0 l 217 0 q 0 216 0 0 l 0 597 q 217 814 0 814 l 1085 814 l 1085 597 l 271 597 q 217 543 217 597 l 217 515 m 434 1085 l 434 869 l 217 869 l 217 1085 l 434 1085 m 868 1085 l 868 868 l 651 868 l 651 1085 l 868 1085 z "},"ì":{"ha":326,"x_min":-176,"x_max":393,"o":"m 217 814 l 217 1 l 0 0 l 0 814 l 217 814 m -176 1139 l 68 1139 l 393 868 l 149 868 l -176 1139 z "},"í":{"ha":326,"x_min":-176,"x_max":393,"o":"m 217 814 l 217 1 l 0 0 l 0 814 l 217 814 m 68 868 l -176 868 l 149 1139 l 393 1139 l 68 868 z "},"î":{"ha":326,"x_min":-217,"x_max":434,"o":"m 217 814 l 217 1 l 0 0 l 0 814 l 217 814 m 109 1023 l 0 868 l -217 868 l -27 1139 l 244 1139 l 434 868 l 217 868 l 109 1023 z "},"ï":{"ha":326,"x_min":-217,"x_max":434,"o":"m 217 814 l 217 1 l 0 0 l 0 814 l 217 814 m 0 1085 l 0 869 l -217 869 l -217 1085 l 0 1085 m 434 1085 l 434 868 l 217 868 l 217 1085 l 434 1085 z "},"ð":{"ha":1302,"x_min":0,"x_max":1194,"o":"m 109 515 l 109 814 l 977 814 q 1194 597 1194 814 l 1194 216 q 977 0 1194 0 l 109 0 l 109 298 l 0 298 l 0 515 l 109 515 m 326 515 l 760 515 l 760 298 l 326 298 l 326 217 l 922 217 q 977 271 977 217 l 977 543 q 922 597 977 597 l 326 597 l 326 515 z "},"ñ":{"ha":1302,"x_min":0,"x_max":1194,"o":"m 977 191 l 977 814 l 1194 814 l 1194 163 q 1031 0 1194 0 q 868 54 922 0 l 217 623 l 217 1 l 0 0 l 0 651 q 163 814 0 814 q 326 760 271 814 l 977 191 m 665 1059 l 665 1139 l 882 1139 l 882 1031 q 719 868 882 868 q 556 922 610 868 l 529 949 l 529 869 l 312 869 l 312 978 q 475 1141 312 1141 q 637 1086 583 1141 l 665 1059 z "},"ò":{"ha":1302,"x_min":0,"x_max":1194,"o":"m 217 271 q 271 217 217 217 l 922 217 q 977 271 977 217 l 977 543 q 922 597 977 597 l 271 597 q 217 543 217 597 l 217 271 m 977 814 q 1194 597 1194 814 l 1194 216 q 977 0 1194 0 l 217 0 q 0 217 0 0 l 0 597 q 217 814 0 814 l 977 814 m 312 1139 l 556 1139 l 882 868 l 637 868 l 312 1139 z "},"ó":{"ha":1302,"x_min":0,"x_max":1194,"o":"m 217 271 q 271 217 217 217 l 922 217 q 977 271 977 217 l 977 543 q 922 597 977 597 l 271 597 q 217 543 217 597 l 217 271 m 977 814 q 1194 597 1194 814 l 1194 216 q 977 0 1194 0 l 217 0 q 0 217 0 0 l 0 597 q 217 814 0 814 l 977 814 m 556 868 l 312 868 l 637 1139 l 882 1139 l 556 868 z "},"ô":{"ha":1302,"x_min":0,"x_max":1194,"o":"m 217 271 q 271 217 217 217 l 922 217 q 977 271 977 217 l 977 543 q 922 597 977 597 l 271 597 q 217 543 217 597 l 217 271 m 977 814 q 1194 597 1194 814 l 1194 216 q 977 0 1194 0 l 217 0 q 0 217 0 0 l 0 597 q 217 814 0 814 l 977 814 m 597 1023 l 488 868 l 271 868 l 461 1139 l 732 1139 l 922 868 l 705 868 l 597 1023 z "},"õ":{"ha":1302,"x_min":0,"x_max":1194,"o":"m 217 271 q 271 217 217 217 l 922 217 q 977 271 977 217 l 977 543 q 922 597 977 597 l 271 597 q 217 543 217 597 l 217 271 m 977 814 q 1194 597 1194 814 l 1194 216 q 977 0 1194 0 l 217 0 q 0 217 0 0 l 0 597 q 217 814 0 814 l 977 814 m 665 1059 l 665 1139 l 882 1139 l 882 1031 q 719 868 882 868 q 556 922 610 868 l 529 949 l 529 869 l 312 869 l 312 978 q 475 1141 312 1141 q 637 1086 583 1141 l 665 1059 z "},"ö":{"ha":1302,"x_min":0,"x_max":1194,"o":"m 217 271 q 271 217 217 217 l 922 217 q 977 271 977 217 l 977 543 q 922 597 977 597 l 271 597 q 217 543 217 597 l 217 271 m 977 814 q 1194 597 1194 814 l 1194 216 q 977 0 1194 0 l 217 0 q 0 217 0 0 l 0 597 q 217 814 0 814 l 977 814 m 488 1085 l 488 869 l 271 869 l 271 1085 l 488 1085 m 922 1085 l 922 868 l 705 868 l 705 1085 l 922 1085 z "},"÷":{"ha":1221,"x_min":0,"x_max":1085,"o":"m 0 644 l 1085 644 l 1085 373 l 0 373 l 0 644 m 678 271 l 678 1 l 407 0 l 407 271 l 678 271 m 678 1017 l 678 747 l 407 746 l 407 1017 l 678 1017 z "},"ø":{"ha":1302,"x_min":0,"x_max":1194,"o":"m 249 220 l 677 597 l 271 597 q 217 543 217 597 l 217 271 q 249 220 217 229 m 945 594 l 517 217 l 922 217 q 977 271 977 217 l 977 543 q 945 594 977 585 m 1194 814 l 1136 763 q 1194 597 1194 709 l 1194 216 q 977 0 1194 0 l 0 0 l 58 51 q 0 217 0 105 l 0 597 q 217 814 0 814 l 1194 814 z "},"ù":{"ha":1302,"x_min":0,"x_max":1194,"o":"m 217 271 q 271 217 217 217 l 922 217 q 977 271 977 217 l 977 814 l 1194 814 l 1194 216 q 977 0 1194 0 l 217 0 q 0 217 0 0 l 0 814 l 217 814 l 217 271 m 312 1139 l 556 1139 l 882 868 l 637 868 l 312 1139 z "},"ú":{"ha":1302,"x_min":0,"x_max":1194,"o":"m 217 271 q 271 217 217 217 l 922 217 q 977 271 977 217 l 977 814 l 1194 814 l 1194 216 q 977 0 1194 0 l 217 0 q 0 217 0 0 l 0 814 l 217 814 l 217 271 m 556 868 l 312 868 l 637 1139 l 882 1139 l 556 868 z "},"û":{"ha":1302,"x_min":0,"x_max":1194,"o":"m 217 271 q 271 217 217 217 l 922 217 q 977 271 977 217 l 977 814 l 1194 814 l 1194 216 q 977 0 1194 0 l 217 0 q 0 217 0 0 l 0 814 l 217 814 l 217 271 m 597 1023 l 488 868 l 271 868 l 461 1139 l 732 1139 l 922 868 l 705 868 l 597 1023 z "},"ü":{"ha":1302,"x_min":0,"x_max":1194,"o":"m 217 271 q 271 217 217 217 l 922 217 q 977 271 977 217 l 977 814 l 1194 814 l 1194 216 q 977 0 1194 0 l 217 0 q 0 217 0 0 l 0 814 l 217 814 l 217 271 m 488 1085 l 488 869 l 271 869 l 271 1085 l 488 1085 m 922 1085 l 922 868 l 705 868 l 705 1085 l 922 1085 z "},"ý":{"ha":1302,"x_min":0,"x_max":1194,"o":"m 488 383 l 461 407 l 0 814 l 271 814 l 597 527 l 922 814 l 1194 814 l 732 407 l 705 383 l 705 1 l 488 0 l 488 383 m 556 868 l 312 868 l 637 1139 l 882 1139 l 556 868 z "},"þ":{"ha":1302,"x_min":0,"x_max":1194,"o":"m 217 380 l 922 380 q 977 407 977 380 l 977 434 q 922 461 977 461 l 217 461 l 217 380 m 217 678 l 977 678 q 1194 461 1194 678 l 1194 379 q 977 163 1194 163 l 217 163 l 217 0 l 0 0 l 0 814 l 217 814 l 217 678 z "},"ÿ":{"ha":1302,"x_min":0,"x_max":1194,"o":"m 488 383 l 461 407 l 0 814 l 271 814 l 597 527 l 922 814 l 1194 814 l 732 407 l 705 383 l 705 1 l 488 0 l 488 383 m 488 1085 l 488 869 l 271 869 l 271 1085 l 488 1085 m 922 1085 l 922 868 l 705 868 l 705 1085 l 922 1085 z "},"ı":{"ha":326,"x_min":0,"x_max":217,"o":"m 217 814 l 217 1 l 0 0 l 0 814 l 217 814 z "},"ˆ":{"ha":949,"x_min":0,"x_max":814,"o":"m 407 1279 l 271 1085 l 0 1085 l 237 1424 l 576 1424 l 814 1085 l 543 1085 l 407 1279 z "},"ˇ":{"ha":949,"x_min":0,"x_max":814,"o":"m 543 1424 l 814 1424 l 576 1085 l 237 1085 l 0 1424 l 271 1424 l 407 1230 l 543 1424 z "},"ˉ":{"ha":694,"x_min":172,"x_max":522,"o":"m 172 810 l 172 895 l 522 895 l 522 810 l 172 810 z "},"˘":{"ha":694,"x_min":149,"x_max":545,"o":"m 149 915 l 183 915 q 234 842 195 865 q 347 819 273 819 q 460 842 421 819 q 510 915 498 865 l 545 915 q 481 778 531 825 q 347 732 431 732 q 214 779 264 732 q 149 915 163 825 z "},"˙":{"ha":694,"x_min":277,"x_max":422,"o":"m 286 874 l 333 923 q 342 929 337 927 q 351 931 347 931 q 360 929 355 931 q 368 923 364 927 l 416 871 q 421 865 420 869 q 422 855 422 861 q 420 845 422 849 q 415 837 419 841 l 367 785 q 356 776 359 778 q 351 774 353 774 q 340 776 345 774 q 333 782 336 778 l 282 841 q 278 847 279 844 q 277 857 277 851 q 279 865 277 861 q 286 874 281 869 z "},"˚":{"ha":694,"x_min":227,"x_max":468,"o":"m 279 852 q 298 804 279 824 q 347 785 318 785 q 395 804 375 785 q 414 852 414 824 q 394 900 414 880 q 347 920 374 920 q 299 900 319 920 q 279 852 279 880 m 227 852 q 262 938 227 903 q 347 972 296 972 q 433 938 398 972 q 468 852 468 903 q 433 767 468 802 q 347 732 398 732 q 262 767 296 732 q 227 852 227 802 z "},"˛":{"ha":610,"x_min":0,"x_max":475,"o":"m 475 -339 l 271 -339 q 0 -68 0 -339 l 0 0 l 271 0 q 339 -68 271 -68 l 475 -68 l 475 -339 z "},"˜":{"ha":848,"x_min":0,"x_max":712,"o":"m 441 1324 l 441 1424 l 712 1424 l 712 1289 q 509 1085 712 1085 q 305 1153 373 1085 l 271 1187 l 271 1087 l 0 1086 l 0 1223 q 203 1426 0 1426 q 407 1358 339 1426 l 441 1324 z "},"˝":{"ha":694,"x_min":147,"x_max":547,"o":"m 147 732 l 245 917 q 276 960 261 947 q 307 972 290 972 q 340 959 326 972 q 353 927 353 945 q 346 903 353 916 q 326 876 339 890 l 186 732 l 147 732 m 340 732 l 438 917 q 469 960 454 947 q 500 972 484 972 q 533 959 519 972 q 547 927 547 945 q 539 903 547 916 q 519 876 532 890 l 380 732 l 340 732 z "},"–":{"ha":1221,"x_min":0,"x_max":1085,"o":"m 0 644 l 1085 644 l 1085 373 l 0 373 l 0 644 z "},"—":{"ha":1221,"x_min":0,"x_max":1085,"o":"m 0 644 l 1085 644 l 1085 373 l 0 373 l 0 644 z "},"‘":{"ha":407,"x_min":0,"x_max":271,"o":"m 271 475 q 0 746 0 475 l 3 747 l 0 747 l 0 1017 l 271 1017 l 271 475 z "},"’":{"ha":407,"x_min":0,"x_max":271,"o":"m 0 1017 l 271 1017 l 271 747 l 269 747 l 271 746 q 0 475 271 475 l 0 1017 z "},"‚":{"ha":407,"x_min":0,"x_max":271,"o":"m 0 271 l 271 271 l 271 1 l 269 1 l 271 0 q 0 -271 271 -271 l 0 271 z "},"“":{"ha":746,"x_min":0,"x_max":610,"o":"m 610 475 q 339 746 339 475 l 342 747 l 339 747 l 339 1017 l 610 1017 l 610 475 m 271 475 q 0 746 0 475 l 3 747 l 0 747 l 0 1017 l 271 1017 l 271 475 z "},"”":{"ha":746,"x_min":0,"x_max":610,"o":"m 0 1017 l 271 1017 l 271 747 l 269 747 l 271 746 q 0 475 271 475 l 0 1017 m 339 1017 l 610 1017 l 610 747 l 608 747 l 610 746 q 339 475 610 475 l 339 1017 z "},"„":{"ha":746,"x_min":0,"x_max":610,"o":"m 0 271 l 271 271 l 271 1 l 269 1 l 271 0 q 0 -271 271 -271 l 0 271 m 339 271 l 610 271 l 610 1 l 608 1 l 610 0 q 339 -271 610 -271 l 339 271 z "},"†":{"ha":688,"x_min":48,"x_max":640,"o":"m 330 693 q 293 814 324 759 q 254 901 254 882 q 279 955 254 935 q 344 975 303 975 q 408 956 382 975 q 433 907 433 937 q 396 814 433 886 q 359 693 365 757 q 479 730 424 699 q 566 768 547 768 q 620 744 600 768 q 640 679 640 720 q 622 615 640 640 q 572 589 603 589 q 480 627 551 589 q 359 665 422 658 q 433 477 364 546 q 357 -183 361 165 l 332 -183 q 254 477 328 165 q 330 665 323 546 q 209 628 264 659 q 121 589 140 589 q 68 614 88 589 q 48 679 48 638 q 67 743 48 718 q 115 768 85 768 q 208 730 137 768 q 330 693 266 699 z "},"‡":{"ha":688,"x_min":47,"x_max":640,"o":"m 358 126 q 479 165 422 134 q 572 202 550 202 q 621 177 602 202 q 640 113 640 151 q 619 47 640 72 q 566 23 599 23 q 478 62 547 23 q 358 98 423 93 q 395 -23 364 35 q 433 -116 433 -94 q 407 -164 433 -146 q 343 -183 382 -183 q 278 -163 302 -183 q 254 -110 254 -143 q 292 -22 254 -91 q 329 98 323 33 q 208 61 265 92 q 115 23 136 23 q 66 48 85 23 q 47 113 47 74 q 67 178 47 153 q 121 202 87 202 q 208 163 140 202 q 329 126 264 133 q 254 396 323 279 q 329 665 323 512 q 208 628 264 659 q 121 589 140 589 q 67 614 87 589 q 47 679 47 638 q 66 743 47 718 q 115 768 85 768 q 208 730 136 768 q 329 693 265 699 q 292 814 323 759 q 254 901 254 882 q 278 955 254 935 q 343 975 302 975 q 407 956 382 975 q 433 907 433 937 q 395 814 433 886 q 358 693 364 757 q 478 730 423 699 q 566 768 547 768 q 619 744 599 768 q 640 679 640 720 q 621 615 640 640 q 572 589 602 589 q 479 627 550 589 q 358 665 422 658 q 433 396 363 512 q 358 126 363 279 z "},"•":{"ha":694,"x_min":146,"x_max":548,"o":"m 146 487 q 205 629 146 570 q 348 687 264 687 q 489 628 431 687 q 548 487 548 570 q 489 345 548 404 q 347 286 429 286 q 205 345 263 286 q 146 487 146 404 z "},"…":{"ha":1085,"x_min":0,"x_max":949,"o":"m 271 271 l 271 1 l 0 0 l 0 271 l 271 271 m 610 271 l 610 1 l 339 0 l 339 271 l 610 271 m 949 271 l 949 1 l 678 0 l 678 271 l 949 271 z "},"‹":{"ha":1051,"x_min":0,"x_max":916,"o":"m 0 509 l 576 1017 l 916 1017 l 339 509 l 916 0 l 576 0 l 0 509 z "},"›":{"ha":1051,"x_min":0,"x_max":916,"o":"m 339 0 l 0 0 l 576 509 l 0 1017 l 339 1017 l 916 509 l 339 0 z "},"⁄":{"ha":1628,"x_min":0,"x_max":1492,"o":"m 1153 1017 l 1492 1017 l 339 0 l 0 0 l 1153 1017 z "},"₣":{"ha":1492,"x_min":0,"x_max":1356,"o":"m 136 339 l 136 746 q 407 1017 136 1017 l 1356 1017 l 1356 746 l 475 746 q 407 678 407 746 l 407 644 l 1356 644 l 1356 373 l 407 373 l 407 339 l 543 339 l 543 68 l 407 68 l 407 0 l 136 0 l 136 68 l 0 68 l 0 339 l 136 339 z "},"₤":{"ha":1492,"x_min":0,"x_max":1356,"o":"m 0 0 l 0 271 l 271 271 l 271 373 l 136 373 l 136 644 l 271 644 l 271 746 q 543 1017 271 1017 l 1356 1017 l 1356 746 l 610 746 q 543 678 543 746 l 543 644 l 1221 644 l 1221 373 l 543 373 l 543 271 l 1356 271 l 1356 0 l 0 0 z "},"₧":{"ha":1628,"x_min":0,"x_max":1492,"o":"m 407 644 l 1153 644 q 1221 678 1221 644 l 1221 712 q 1153 746 1221 746 l 407 746 l 407 644 m 136 339 l 136 1017 l 1221 1017 q 1492 746 1492 1017 l 1492 644 q 1221 373 1492 373 l 407 373 l 407 339 l 543 339 l 543 68 l 407 68 l 407 0 l 136 0 l 136 68 l 0 68 l 0 339 l 136 339 z "},"€":{"ha":1356,"x_min":0,"x_max":1221,"o":"m 136 644 l 136 746 q 407 1017 136 1017 l 1221 1017 l 1221 746 l 475 746 q 407 678 407 746 l 407 644 l 1221 644 l 1221 373 l 407 373 l 407 339 q 475 271 407 271 l 1221 271 l 1221 0 l 407 0 q 136 271 136 0 l 136 373 l 0 373 l 0 644 l 136 644 z "},"№":{"ha":1695,"x_min":0,"x_max":1560,"o":"m 610 629 l 610 1017 l 746 1017 l 746 610 q 644 509 746 509 q 543 543 576 509 l 136 898 l 136 509 l 0 509 l 0 916 q 102 1017 0 1017 q 203 983 170 1017 l 610 629 m 949 678 q 983 644 949 644 l 1390 644 q 1424 678 1424 644 l 1424 848 q 1390 882 1424 882 l 983 882 q 949 848 949 882 l 949 678 m 1424 1017 q 1560 882 1560 1017 l 1560 644 q 1424 509 1560 509 l 949 509 q 814 644 814 509 l 814 882 q 949 1017 814 1017 l 1424 1017 z "},"™":{"ha":1695,"x_min":0,"x_max":1560,"o":"m 271 882 l 0 882 l 0 1017 l 678 1017 l 678 882 l 407 882 l 407 509 l 271 509 l 271 882 m 1458 1017 q 1560 916 1560 1017 l 1560 509 l 1424 509 l 1424 838 l 1305 627 q 1153 509 1238 509 q 1000 627 1068 509 l 882 838 l 882 509 l 746 509 l 746 916 q 848 1017 746 1017 q 983 950 949 1017 l 1153 659 l 1322 950 q 1458 1017 1356 1017 z "},"∂":{"ha":1119,"x_min":0,"x_max":1017,"o":"m 136 0 q 0 136 0 0 l 0 882 q 136 1017 0 1017 l 882 1017 q 1017 882 1017 1017 l 1017 136 q 882 0 1017 0 l 136 0 m 882 17 q 1000 136 1000 17 l 1000 882 q 882 1000 1000 1000 l 136 1000 q 17 882 18 1000 l 17 136 q 136 17 18 17 l 882 17 z "},"∆":{"ha":1119,"x_min":0,"x_max":1017,"o":"m 136 0 q 0 136 0 0 l 0 882 q 136 1017 0 1017 l 882 1017 q 1017 882 1017 1017 l 1017 136 q 882 0 1017 0 l 136 0 m 882 17 q 1000 136 1000 17 l 1000 882 q 882 1000 1000 1000 l 136 1000 q 17 882 18 1000 l 17 136 q 136 17 18 17 l 882 17 z "},"∏":{"ha":1119,"x_min":0,"x_max":1017,"o":"m 136 0 q 0 136 0 0 l 0 882 q 136 1017 0 1017 l 882 1017 q 1017 882 1017 1017 l 1017 136 q 882 0 1017 0 l 136 0 m 882 17 q 1000 136 1000 17 l 1000 882 q 882 1000 1000 1000 l 136 1000 q 17 882 18 1000 l 17 136 q 136 17 18 17 l 882 17 z "},"∑":{"ha":1119,"x_min":0,"x_max":1017,"o":"m 136 0 q 0 136 0 0 l 0 882 q 136 1017 0 1017 l 882 1017 q 1017 882 1017 1017 l 1017 136 q 882 0 1017 0 l 136 0 m 882 17 q 1000 136 1000 17 l 1000 882 q 882 1000 1000 1000 l 136 1000 q 17 882 18 1000 l 17 136 q 136 17 18 17 l 882 17 z "},"−":{"ha":1221,"x_min":0,"x_max":1085,"o":"m 0 644 l 1085 644 l 1085 373 l 0 373 l 0 644 z "},"√":{"ha":1119,"x_min":0,"x_max":1017,"o":"m 136 0 q 0 136 0 0 l 0 882 q 136 1017 0 1017 l 882 1017 q 1017 882 1017 1017 l 1017 136 q 882 0 1017 0 l 136 0 m 882 17 q 1000 136 1000 17 l 1000 882 q 882 1000 1000 1000 l 136 1000 q 17 882 18 1000 l 17 136 q 136 17 18 17 l 882 17 z "},"∞":{"ha":1119,"x_min":0,"x_max":1017,"o":"m 136 0 q 0 136 0 0 l 0 882 q 136 1017 0 1017 l 882 1017 q 1017 882 1017 1017 l 1017 136 q 882 0 1017 0 l 136 0 m 882 17 q 1000 136 1000 17 l 1000 882 q 882 1000 1000 1000 l 136 1000 q 17 882 18 1000 l 17 136 q 136 17 18 17 l 882 17 z "},"∫":{"ha":1119,"x_min":0,"x_max":1017,"o":"m 136 0 q 0 136 0 0 l 0 882 q 136 1017 0 1017 l 882 1017 q 1017 882 1017 1017 l 1017 136 q 882 0 1017 0 l 136 0 m 882 17 q 1000 136 1000 17 l 1000 882 q 882 1000 1000 1000 l 136 1000 q 17 882 18 1000 l 17 136 q 136 17 18 17 l 882 17 z "},"≈":{"ha":1119,"x_min":0,"x_max":1017,"o":"m 136 0 q 0 136 0 0 l 0 882 q 136 1017 0 1017 l 882 1017 q 1017 882 1017 1017 l 1017 136 q 882 0 1017 0 l 136 0 m 882 17 q 1000 136 1000 17 l 1000 882 q 882 1000 1000 1000 l 136 1000 q 17 882 18 1000 l 17 136 q 136 17 18 17 l 882 17 z "},"≤":{"ha":1119,"x_min":0,"x_max":1017,"o":"m 136 0 q 0 136 0 0 l 0 882 q 136 1017 0 1017 l 882 1017 q 1017 882 1017 1017 l 1017 136 q 882 0 1017 0 l 136 0 m 882 17 q 1000 136 1000 17 l 1000 882 q 882 1000 1000 1000 l 136 1000 q 17 882 18 1000 l 17 136 q 136 17 18 17 l 882 17 z "},"≥":{"ha":1119,"x_min":0,"x_max":1017,"o":"m 136 0 q 0 136 0 0 l 0 882 q 136 1017 0 1017 l 882 1017 q 1017 882 1017 1017 l 1017 136 q 882 0 1017 0 l 136 0 m 882 17 q 1000 136 1000 17 l 1000 882 q 882 1000 1000 1000 l 136 1000 q 17 882 18 1000 l 17 136 q 136 17 18 17 l 882 17 z "},"":{"ha":728,"x_min":0,"x_max":0,"o":""},"":{"ha":733,"x_min":0,"x_max":0,"o":""}}}
